<mxfile host="app.diagrams.net" agent="Mozilla/5.0 (Windows NT 10.0; Win64; x64) AppleWebKit/537.36 (KHTML, like Gecko) Chrome/122.0.6261.95 Safari/537.36" version="25.0.3">
  <diagram name="第 1 页" id="VDVgVEZFd_agvDAb9Zl8">
    <mxGraphModel dx="1144" dy="670" grid="1" gridSize="10" guides="1" tooltips="1" connect="1" arrows="1" fold="1" page="1" pageScale="1" pageWidth="827" pageHeight="1169" math="0" shadow="0">
      <root>
        <mxCell id="0" />
        <mxCell id="1" parent="0" />
        <mxCell id="xwjlS2kjYyCqcEE61cu8-3" value="" style="edgeStyle=orthogonalEdgeStyle;rounded=0;orthogonalLoop=1;jettySize=auto;html=1;" edge="1" parent="1" source="xwjlS2kjYyCqcEE61cu8-1" target="xwjlS2kjYyCqcEE61cu8-2">
          <mxGeometry relative="1" as="geometry" />
        </mxCell>
        <mxCell id="xwjlS2kjYyCqcEE61cu8-5" value="" style="edgeStyle=orthogonalEdgeStyle;rounded=0;orthogonalLoop=1;jettySize=auto;html=1;" edge="1" parent="1" source="xwjlS2kjYyCqcEE61cu8-1" target="xwjlS2kjYyCqcEE61cu8-4">
          <mxGeometry relative="1" as="geometry" />
        </mxCell>
        <mxCell id="xwjlS2kjYyCqcEE61cu8-1" value="功能点" style="rounded=0;whiteSpace=wrap;html=1;" vertex="1" parent="1">
          <mxGeometry x="354" y="320" width="120" height="60" as="geometry" />
        </mxCell>
        <mxCell id="xwjlS2kjYyCqcEE61cu8-2" value="待新增" style="whiteSpace=wrap;html=1;rounded=0;" vertex="1" parent="1">
          <mxGeometry x="354" y="190" width="120" height="60" as="geometry" />
        </mxCell>
        <mxCell id="xwjlS2kjYyCqcEE61cu8-7" value="" style="edgeStyle=orthogonalEdgeStyle;rounded=0;orthogonalLoop=1;jettySize=auto;html=1;" edge="1" parent="1" source="xwjlS2kjYyCqcEE61cu8-4" target="xwjlS2kjYyCqcEE61cu8-6">
          <mxGeometry relative="1" as="geometry" />
        </mxCell>
        <mxCell id="xwjlS2kjYyCqcEE61cu8-18" value="" style="edgeStyle=orthogonalEdgeStyle;rounded=0;orthogonalLoop=1;jettySize=auto;html=1;" edge="1" parent="1" source="xwjlS2kjYyCqcEE61cu8-4" target="xwjlS2kjYyCqcEE61cu8-17">
          <mxGeometry relative="1" as="geometry" />
        </mxCell>
        <mxCell id="xwjlS2kjYyCqcEE61cu8-4" value="已有功能" style="whiteSpace=wrap;html=1;rounded=0;" vertex="1" parent="1">
          <mxGeometry x="354" y="460" width="120" height="60" as="geometry" />
        </mxCell>
        <mxCell id="xwjlS2kjYyCqcEE61cu8-9" value="" style="edgeStyle=orthogonalEdgeStyle;rounded=0;orthogonalLoop=1;jettySize=auto;html=1;" edge="1" parent="1" source="xwjlS2kjYyCqcEE61cu8-6" target="xwjlS2kjYyCqcEE61cu8-8">
          <mxGeometry relative="1" as="geometry" />
        </mxCell>
        <mxCell id="xwjlS2kjYyCqcEE61cu8-10" style="edgeStyle=orthogonalEdgeStyle;rounded=0;orthogonalLoop=1;jettySize=auto;html=1;" edge="1" parent="1" source="xwjlS2kjYyCqcEE61cu8-6">
          <mxGeometry relative="1" as="geometry">
            <mxPoint x="200" y="690" as="targetPoint" />
            <Array as="points">
              <mxPoint x="140" y="650" />
              <mxPoint x="201" y="650" />
            </Array>
          </mxGeometry>
        </mxCell>
        <mxCell id="xwjlS2kjYyCqcEE61cu8-6" value="交易所模块" style="whiteSpace=wrap;html=1;rounded=0;" vertex="1" parent="1">
          <mxGeometry x="80" y="550" width="120" height="60" as="geometry" />
        </mxCell>
        <mxCell id="xwjlS2kjYyCqcEE61cu8-14" value="" style="edgeStyle=orthogonalEdgeStyle;rounded=0;orthogonalLoop=1;jettySize=auto;html=1;" edge="1" parent="1" source="xwjlS2kjYyCqcEE61cu8-8" target="xwjlS2kjYyCqcEE61cu8-13">
          <mxGeometry relative="1" as="geometry" />
        </mxCell>
        <mxCell id="xwjlS2kjYyCqcEE61cu8-8" value="普通交易所&lt;div&gt;资金费率&lt;/div&gt;&lt;div&gt;币安 芝麻&lt;/div&gt;" style="whiteSpace=wrap;html=1;rounded=0;" vertex="1" parent="1">
          <mxGeometry x="20" y="690" width="120" height="60" as="geometry" />
        </mxCell>
        <mxCell id="xwjlS2kjYyCqcEE61cu8-16" style="edgeStyle=orthogonalEdgeStyle;rounded=0;orthogonalLoop=1;jettySize=auto;html=1;" edge="1" parent="1" source="xwjlS2kjYyCqcEE61cu8-11" target="xwjlS2kjYyCqcEE61cu8-15">
          <mxGeometry relative="1" as="geometry" />
        </mxCell>
        <mxCell id="xwjlS2kjYyCqcEE61cu8-11" value="特殊交易所&lt;div&gt;资金费率&lt;/div&gt;&lt;div&gt;需接口一个个调用&lt;/div&gt;&lt;div&gt;欧易&lt;/div&gt;" style="rounded=0;whiteSpace=wrap;html=1;" vertex="1" parent="1">
          <mxGeometry x="150" y="690" width="120" height="60" as="geometry" />
        </mxCell>
        <mxCell id="xwjlS2kjYyCqcEE61cu8-13" value="交易量" style="whiteSpace=wrap;html=1;rounded=0;" vertex="1" parent="1">
          <mxGeometry x="20" y="790" width="120" height="60" as="geometry" />
        </mxCell>
        <mxCell id="xwjlS2kjYyCqcEE61cu8-15" value="交易量" style="whiteSpace=wrap;html=1;rounded=0;" vertex="1" parent="1">
          <mxGeometry x="150" y="790" width="120" height="60" as="geometry" />
        </mxCell>
        <mxCell id="xwjlS2kjYyCqcEE61cu8-20" value="" style="edgeStyle=orthogonalEdgeStyle;rounded=0;orthogonalLoop=1;jettySize=auto;html=1;" edge="1" parent="1" source="xwjlS2kjYyCqcEE61cu8-17" target="xwjlS2kjYyCqcEE61cu8-19">
          <mxGeometry relative="1" as="geometry" />
        </mxCell>
        <mxCell id="xwjlS2kjYyCqcEE61cu8-23" style="edgeStyle=orthogonalEdgeStyle;rounded=0;orthogonalLoop=1;jettySize=auto;html=1;" edge="1" parent="1" source="xwjlS2kjYyCqcEE61cu8-17">
          <mxGeometry relative="1" as="geometry">
            <mxPoint x="550" y="670" as="targetPoint" />
          </mxGeometry>
        </mxCell>
        <mxCell id="xwjlS2kjYyCqcEE61cu8-17" value="交易模块" style="whiteSpace=wrap;html=1;rounded=0;" vertex="1" parent="1">
          <mxGeometry x="354" y="550" width="120" height="60" as="geometry" />
        </mxCell>
        <mxCell id="xwjlS2kjYyCqcEE61cu8-22" value="" style="edgeStyle=orthogonalEdgeStyle;rounded=0;orthogonalLoop=1;jettySize=auto;html=1;" edge="1" parent="1" source="xwjlS2kjYyCqcEE61cu8-19" target="xwjlS2kjYyCqcEE61cu8-21">
          <mxGeometry relative="1" as="geometry" />
        </mxCell>
        <mxCell id="xwjlS2kjYyCqcEE61cu8-19" value="下单" style="whiteSpace=wrap;html=1;rounded=0;" vertex="1" parent="1">
          <mxGeometry x="310" y="670" width="120" height="60" as="geometry" />
        </mxCell>
        <mxCell id="xwjlS2kjYyCqcEE61cu8-21" value="做多，先手，倍数，订单笔数，单次数量" style="whiteSpace=wrap;html=1;rounded=0;" vertex="1" parent="1">
          <mxGeometry x="310" y="800" width="120" height="60" as="geometry" />
        </mxCell>
        <mxCell id="xwjlS2kjYyCqcEE61cu8-26" value="" style="edgeStyle=orthogonalEdgeStyle;rounded=0;orthogonalLoop=1;jettySize=auto;html=1;" edge="1" parent="1" source="xwjlS2kjYyCqcEE61cu8-24" target="xwjlS2kjYyCqcEE61cu8-25">
          <mxGeometry relative="1" as="geometry" />
        </mxCell>
        <mxCell id="xwjlS2kjYyCqcEE61cu8-24" value="统计模块" style="rounded=0;whiteSpace=wrap;html=1;" vertex="1" parent="1">
          <mxGeometry x="490" y="670" width="120" height="60" as="geometry" />
        </mxCell>
        <mxCell id="xwjlS2kjYyCqcEE61cu8-25" value="用户仓位，仓位盈亏&lt;div&gt;&lt;br&gt;&lt;/div&gt;&lt;div&gt;总持仓盈亏(先手后手总和)&lt;/div&gt;&lt;div&gt;资金费率盈亏&lt;/div&gt;" style="rounded=0;whiteSpace=wrap;html=1;" vertex="1" parent="1">
          <mxGeometry x="460" y="790" width="180" height="150" as="geometry" />
        </mxCell>
      </root>
    </mxGraphModel>
  </diagram>
</mxfile>
